<svg width="917" height="215" viewBox="0 0 917 215" fill="none" xmlns="http://www.w3.org/2000/svg">
<path d="M890.933 79.098C853.815 90.3288 847.154 116.686 840.226 138.875L848.399 141.012L851.585 131.132C853.661 131.685 855.808 132.064 857.321 131.948C903.545 128.395 910.191 56.6733 910.191 56.6733C906.69 65.3202 877.363 68.6216 856.702 74.3985C836.042 80.1754 829.128 98.5096 829.829 106.834C830.53 115.157 838.498 121.876 838.498 121.876C848.912 82.3279 890.933 79.098 890.933 79.098Z" fill="#1AA705"/>
<path d="M27.136 52.04L40.32 125.896L79.872 52.04H95.36L46.208 141H29.312L11.52 52.04H27.136ZM134.827 69.32C143.616 69.32 150.614 71.7947 155.819 76.744C161.11 81.6933 163.755 88.3493 163.755 96.712C163.755 98.6747 163.542 101.021 163.115 103.752C162.774 105.629 162.176 107.933 161.323 110.664H107.435C107.35 111.261 107.307 112.157 107.307 113.352C107.307 118.387 108.843 122.397 111.915 125.384C115.072 128.371 119.168 129.864 124.203 129.864C132.139 129.864 138.24 126.579 142.507 120.008H158.251C155.008 126.493 150.23 131.827 143.915 136.008C137.6 140.104 130.304 142.152 122.027 142.152C116.139 142.152 110.976 141 106.539 138.696C102.102 136.392 98.6457 133.107 96.171 128.84C93.6963 124.488 92.459 119.411 92.459 113.608C92.459 111.133 92.715 108.488 93.227 105.672C94.507 98.4187 97.1097 92.0613 101.035 86.6C104.96 81.0533 109.824 76.7867 115.627 73.8C121.515 70.8133 127.915 69.32 134.827 69.32ZM148.523 100.168C148.694 98.632 148.779 97.5227 148.779 96.84C148.779 92.1467 147.2 88.4347 144.043 85.704C140.971 82.9733 136.96 81.608 132.011 81.608C126.806 81.608 122.112 83.272 117.931 86.6C113.75 89.928 110.891 94.4507 109.355 100.168H148.523ZM211.907 69.32C217.368 69.32 222.019 70.4293 225.859 72.648C229.784 74.7813 232.6 77.4693 234.307 80.712L236.099 70.472H250.819L238.275 142.152C237.08 148.637 234.691 154.397 231.107 159.432C227.523 164.552 222.872 168.563 217.155 171.464C211.438 174.365 204.995 175.816 197.827 175.816C191.598 175.816 186.136 174.792 181.443 172.744C176.75 170.781 173.208 167.923 170.819 164.168C168.43 160.413 167.406 155.976 167.747 150.856H182.211C182.638 154.525 184.472 157.469 187.715 159.688C190.958 161.992 195.096 163.144 200.131 163.144C206.019 163.144 211.096 161.352 215.363 157.768C219.63 154.184 222.36 148.979 223.555 142.152L225.603 130.376C222.531 133.704 218.691 136.52 214.083 138.824C209.475 141.043 204.483 142.152 199.107 142.152C193.731 142.152 188.952 140.957 184.771 138.568C180.59 136.179 177.304 132.808 174.915 128.456C172.611 124.019 171.459 118.941 171.459 113.224C171.459 110.664 171.715 108.061 172.227 105.416C173.507 98.3333 176.067 92.0613 179.907 86.6C183.832 81.1387 188.611 76.9147 194.243 73.928C199.875 70.856 205.763 69.32 211.907 69.32ZM229.955 105.672C230.296 104.051 230.467 102.301 230.467 100.424C230.467 94.7067 228.76 90.2267 225.347 86.984C222.019 83.656 217.838 81.992 212.803 81.992C209.048 81.992 205.379 82.9307 201.795 84.808C198.211 86.6 195.096 89.288 192.451 92.872C189.806 96.3707 188.056 100.552 187.203 105.416C186.862 107.037 186.691 108.787 186.691 110.664C186.691 116.467 188.355 121.075 191.683 124.488C195.096 127.816 199.32 129.48 204.355 129.48C208.11 129.48 211.779 128.541 215.363 126.664C218.947 124.787 222.062 122.056 224.707 118.472C227.352 114.803 229.102 110.536 229.955 105.672ZM298.657 69.32C304.118 69.32 308.769 70.4293 312.609 72.648C316.534 74.7813 319.35 77.4693 321.057 80.712L322.849 70.472H337.569L325.025 142.152C323.83 148.637 321.441 154.397 317.857 159.432C314.273 164.552 309.622 168.563 303.905 171.464C298.188 174.365 291.745 175.816 284.577 175.816C278.348 175.816 272.886 174.792 268.193 172.744C263.5 170.781 259.958 167.923 257.569 164.168C255.18 160.413 254.156 155.976 254.497 150.856H268.961C269.388 154.525 271.222 157.469 274.465 159.688C277.708 161.992 281.846 163.144 286.881 163.144C292.769 163.144 297.846 161.352 302.113 157.768C306.38 154.184 309.11 148.979 310.305 142.152L312.353 130.376C309.281 133.704 305.441 136.52 300.833 138.824C296.225 141.043 291.233 142.152 285.857 142.152C280.481 142.152 275.702 140.957 271.521 138.568C267.34 136.179 264.054 132.808 261.665 128.456C259.361 124.019 258.209 118.941 258.209 113.224C258.209 110.664 258.465 108.061 258.977 105.416C260.257 98.3333 262.817 92.0613 266.657 86.6C270.582 81.1387 275.361 76.9147 280.993 73.928C286.625 70.856 292.513 69.32 298.657 69.32ZM316.705 105.672C317.046 104.051 317.217 102.301 317.217 100.424C317.217 94.7067 315.51 90.2267 312.097 86.984C308.769 83.656 304.588 81.992 299.553 81.992C295.798 81.992 292.129 82.9307 288.545 84.808C284.961 86.6 281.846 89.288 279.201 92.872C276.556 96.3707 274.806 100.552 273.953 105.416C273.612 107.037 273.441 108.787 273.441 110.664C273.441 116.467 275.105 121.075 278.433 124.488C281.846 127.816 286.07 129.48 291.105 129.48C294.86 129.48 298.529 128.541 302.113 126.664C305.697 124.787 308.812 122.056 311.457 118.472C314.102 114.803 315.852 110.536 316.705 105.672ZM365.823 61.128C363.519 61.128 361.642 60.4027 360.191 58.952C358.74 57.5013 358.015 55.6667 358.015 53.448C358.015 50.4613 359.124 47.9013 361.343 45.768C363.647 43.5493 366.25 42.44 369.151 42.44C371.455 42.44 373.29 43.1653 374.655 44.616C376.106 46.0667 376.831 47.9013 376.831 50.12C376.831 53.1067 375.722 55.7093 373.503 57.928C371.284 60.0613 368.724 61.128 365.823 61.128ZM371.327 70.472L358.911 141H344.319L356.735 70.472H371.327ZM421.077 69.32C429.866 69.32 436.864 71.7947 442.069 76.744C447.36 81.6933 450.005 88.3493 450.005 96.712C450.005 98.6747 449.792 101.021 449.365 103.752C449.024 105.629 448.426 107.933 447.573 110.664H393.685C393.6 111.261 393.557 112.157 393.557 113.352C393.557 118.387 395.093 122.397 398.165 125.384C401.322 128.371 405.418 129.864 410.453 129.864C418.389 129.864 424.49 126.579 428.757 120.008H444.501C441.258 126.493 436.48 131.827 430.165 136.008C423.85 140.104 416.554 142.152 408.277 142.152C402.389 142.152 397.226 141 392.789 138.696C388.352 136.392 384.896 133.107 382.421 128.84C379.946 124.488 378.709 119.411 378.709 113.608C378.709 111.133 378.965 108.488 379.477 105.672C380.757 98.4187 383.36 92.0613 387.285 86.6C391.21 81.0533 396.074 76.7867 401.877 73.8C407.765 70.8133 414.165 69.32 421.077 69.32ZM434.773 100.168C434.944 98.632 435.029 97.5227 435.029 96.84C435.029 92.1467 433.45 88.4347 430.293 85.704C427.221 82.9733 423.21 81.608 418.261 81.608C413.056 81.608 408.362 83.272 404.181 86.6C400 89.928 397.141 94.4507 395.605 100.168H434.773ZM481.261 52.04L494.445 125.896L533.997 52.04H549.485L500.333 141H483.437L465.645 52.04H481.261ZM547.352 105.416C548.632 98.3333 551.192 92.0613 555.032 86.6C558.957 81.1387 563.736 76.9147 569.368 73.928C575 70.856 580.888 69.32 587.032 69.32C592.579 69.32 597.229 70.4293 600.984 72.648C604.739 74.7813 607.555 77.4693 609.432 80.712L611.224 70.472H625.944L613.528 141H598.808L600.728 130.504C597.656 133.832 593.773 136.605 589.08 138.824C584.472 141.043 579.437 142.152 573.976 142.152C568.685 142.152 563.949 140.957 559.768 138.568C555.672 136.179 552.429 132.808 550.04 128.456C547.736 124.019 546.584 118.941 546.584 113.224C546.584 110.664 546.84 108.061 547.352 105.416ZM605.08 105.672C605.421 104.051 605.592 102.301 605.592 100.424C605.592 94.7067 603.885 90.2267 600.472 86.984C597.144 83.656 592.963 81.992 587.928 81.992C584.173 81.992 580.504 82.9307 576.92 84.808C573.336 86.6 570.221 89.288 567.576 92.872C564.931 96.3707 563.181 100.552 562.328 105.416C561.987 107.037 561.816 108.787 561.816 110.664C561.816 116.467 563.48 121.075 566.808 124.488C570.221 127.816 574.445 129.48 579.48 129.48C583.235 129.48 586.904 128.541 590.488 126.664C594.072 124.787 597.187 122.056 599.832 118.472C602.477 114.803 604.227 110.536 605.08 105.672ZM708.982 70.472L696.566 141H681.974L683.382 132.68C680.566 135.581 677.153 137.885 673.142 139.592C669.217 141.213 665.163 142.024 660.982 142.024C653.558 142.024 647.627 140.019 643.19 136.008C638.753 131.997 636.534 126.323 636.534 118.984C636.534 117.021 636.747 114.675 637.174 111.944L644.47 70.472H658.934L652.022 109.768C651.681 112.157 651.51 113.864 651.51 114.888C651.51 119.581 652.79 123.165 655.35 125.64C657.995 128.115 661.622 129.352 666.23 129.352C671.606 129.352 676.171 127.773 679.926 124.616C683.681 121.373 686.155 116.723 687.35 110.664L694.39 70.472H708.982ZM747.179 46.28L730.411 141H715.819L732.587 46.28H747.179ZM770.049 121.416C769.878 122.611 769.793 123.379 769.793 123.72C769.793 125.512 770.348 126.835 771.457 127.688C772.566 128.456 774.401 128.84 776.961 128.84H785.921L783.745 141H772.225C766.593 141 762.284 139.891 759.297 137.672C756.31 135.368 754.817 131.741 754.817 126.792C754.817 124.915 754.988 123.123 755.329 121.416L762.241 82.376H753.921L755.969 70.472H764.417L767.489 52.936H782.209L779.137 70.472H796.161L794.113 82.376H776.961L770.049 121.416Z" fill="#1B2629"/>
</svg>
