<svg width="590" height="101" viewBox="0 0 590 101" fill="none" xmlns="http://www.w3.org/2000/svg">
<path d="M12.352 7.27999L22.24 62.672L51.904 7.27999H63.52L26.656 74H13.984L0.64 7.27999H12.352ZM93.1203 20.24C99.7123 20.24 104.96 22.096 108.864 25.808C112.832 29.52 114.816 34.512 114.816 40.784C114.816 42.256 114.656 44.016 114.336 46.064C114.08 47.472 113.632 49.2 112.992 51.248H72.5763C72.5123 51.696 72.4803 52.368 72.4803 53.264C72.4803 57.04 73.6323 60.048 75.9363 62.288C78.3043 64.528 81.3763 65.648 85.1523 65.648C91.1043 65.648 95.6803 63.184 98.8803 58.256H110.688C108.256 63.12 104.672 67.12 99.9363 70.256C95.2003 73.328 89.7283 74.864 83.5203 74.864C79.1043 74.864 75.2323 74 71.9043 72.272C68.5763 70.544 65.9843 68.08 64.1283 64.88C62.2723 61.616 61.3443 57.808 61.3443 53.456C61.3443 51.6 61.5363 49.616 61.9203 47.504C62.8803 42.064 64.8323 37.296 67.7763 33.2C70.7203 29.04 74.3683 25.84 78.7203 23.6C83.1363 21.36 87.9363 20.24 93.1203 20.24ZM103.392 43.376C103.52 42.224 103.584 41.392 103.584 40.88C103.584 37.36 102.4 34.576 100.032 32.528C97.7283 30.48 94.7203 29.456 91.0083 29.456C87.1043 29.456 83.5843 30.704 80.4483 33.2C77.3123 35.696 75.1683 39.088 74.0163 43.376H103.392ZM150.93 20.24C155.026 20.24 158.514 21.072 161.394 22.736C164.338 24.336 166.45 26.352 167.73 28.784L169.074 21.104H180.114L170.706 74.864C169.81 79.728 168.018 84.048 165.33 87.824C162.642 91.664 159.154 94.672 154.866 96.848C150.578 99.024 145.746 100.112 140.37 100.112C135.698 100.112 131.602 99.344 128.082 97.808C124.562 96.336 121.906 94.192 120.114 91.376C118.322 88.56 117.554 85.232 117.81 81.392H128.658C128.978 84.144 130.354 86.352 132.786 88.016C135.218 89.744 138.322 90.608 142.098 90.608C146.514 90.608 150.322 89.264 153.522 86.576C156.722 83.888 158.77 79.984 159.666 74.864L161.202 66.032C158.898 68.528 156.018 70.64 152.562 72.368C149.106 74.032 145.362 74.864 141.33 74.864C137.298 74.864 133.714 73.968 130.578 72.176C127.442 70.384 124.978 67.856 123.186 64.592C121.458 61.264 120.594 57.456 120.594 53.168C120.594 51.248 120.786 49.296 121.17 47.312C122.13 42 124.05 37.296 126.93 33.2C129.874 29.104 133.458 25.936 137.682 23.696C141.906 21.392 146.322 20.24 150.93 20.24ZM164.466 47.504C164.722 46.288 164.85 44.976 164.85 43.568C164.85 39.28 163.57 35.92 161.01 33.488C158.514 30.992 155.378 29.744 151.602 29.744C148.786 29.744 146.034 30.448 143.346 31.856C140.658 33.2 138.322 35.216 136.338 37.904C134.354 40.528 133.042 43.664 132.402 47.312C132.146 48.528 132.018 49.84 132.018 51.248C132.018 55.6 133.266 59.056 135.762 61.616C138.322 64.112 141.49 65.36 145.266 65.36C148.082 65.36 150.834 64.656 153.522 63.248C156.21 61.84 158.546 59.792 160.53 57.104C162.514 54.352 163.826 51.152 164.466 47.504ZM215.993 20.24C220.089 20.24 223.577 21.072 226.457 22.736C229.401 24.336 231.513 26.352 232.793 28.784L234.137 21.104H245.177L235.769 74.864C234.873 79.728 233.081 84.048 230.393 87.824C227.705 91.664 224.217 94.672 219.929 96.848C215.641 99.024 210.809 100.112 205.433 100.112C200.761 100.112 196.665 99.344 193.145 97.808C189.625 96.336 186.969 94.192 185.177 91.376C183.385 88.56 182.617 85.232 182.873 81.392H193.721C194.041 84.144 195.417 86.352 197.849 88.016C200.281 89.744 203.385 90.608 207.161 90.608C211.577 90.608 215.385 89.264 218.585 86.576C221.785 83.888 223.833 79.984 224.729 74.864L226.265 66.032C223.961 68.528 221.081 70.64 217.625 72.368C214.169 74.032 210.425 74.864 206.393 74.864C202.361 74.864 198.777 73.968 195.641 72.176C192.505 70.384 190.041 67.856 188.249 64.592C186.521 61.264 185.657 57.456 185.657 53.168C185.657 51.248 185.849 49.296 186.233 47.312C187.193 42 189.113 37.296 191.993 33.2C194.937 29.104 198.521 25.936 202.745 23.696C206.969 21.392 211.385 20.24 215.993 20.24ZM229.529 47.504C229.785 46.288 229.913 44.976 229.913 43.568C229.913 39.28 228.633 35.92 226.073 33.488C223.577 30.992 220.441 29.744 216.665 29.744C213.849 29.744 211.097 30.448 208.409 31.856C205.721 33.2 203.385 35.216 201.401 37.904C199.417 40.528 198.105 43.664 197.465 47.312C197.209 48.528 197.081 49.84 197.081 51.248C197.081 55.6 198.329 59.056 200.825 61.616C203.385 64.112 206.553 65.36 210.329 65.36C213.145 65.36 215.897 64.656 218.585 63.248C221.273 61.84 223.609 59.792 225.593 57.104C227.577 54.352 228.889 51.152 229.529 47.504ZM266.367 14.096C264.639 14.096 263.231 13.552 262.143 12.464C261.055 11.376 260.511 10 260.511 8.336C260.511 6.096 261.343 4.176 263.007 2.576C264.735 0.911997 266.687 0.0799961 268.863 0.0799961C270.591 0.0799961 271.967 0.623997 272.991 1.712C274.079 2.8 274.623 4.17599 274.623 5.84C274.623 8.08 273.791 10.032 272.127 11.696C270.463 13.296 268.543 14.096 266.367 14.096ZM270.495 21.104L261.183 74H250.239L259.551 21.104H270.495ZM307.808 20.24C314.4 20.24 319.648 22.096 323.552 25.808C327.52 29.52 329.504 34.512 329.504 40.784C329.504 42.256 329.344 44.016 329.024 46.064C328.768 47.472 328.32 49.2 327.68 51.248H287.264C287.2 51.696 287.168 52.368 287.168 53.264C287.168 57.04 288.32 60.048 290.624 62.288C292.992 64.528 296.064 65.648 299.84 65.648C305.792 65.648 310.368 63.184 313.568 58.256H325.376C322.944 63.12 319.36 67.12 314.624 70.256C309.888 73.328 304.416 74.864 298.208 74.864C293.792 74.864 289.92 74 286.592 72.272C283.264 70.544 280.672 68.08 278.816 64.88C276.96 61.616 276.032 57.808 276.032 53.456C276.032 51.6 276.224 49.616 276.608 47.504C277.568 42.064 279.52 37.296 282.464 33.2C285.408 29.04 289.056 25.84 293.408 23.6C297.824 21.36 302.624 20.24 307.808 20.24ZM318.08 43.376C318.208 42.224 318.272 41.392 318.272 40.88C318.272 37.36 317.088 34.576 314.72 32.528C312.416 30.48 309.408 29.456 305.696 29.456C301.792 29.456 298.272 30.704 295.136 33.2C292 35.696 289.856 39.088 288.704 43.376H318.08ZM352.946 7.27999L362.834 62.672L392.498 7.27999H404.114L367.25 74H354.578L341.234 7.27999H352.946ZM402.514 47.312C403.474 42 405.394 37.296 408.274 33.2C411.218 29.104 414.802 25.936 419.026 23.696C423.25 21.392 427.666 20.24 432.274 20.24C436.434 20.24 439.922 21.072 442.738 22.736C445.554 24.336 447.666 26.352 449.074 28.784L450.418 21.104H461.458L452.146 74H441.106L442.546 66.128C440.242 68.624 437.33 70.704 433.81 72.368C430.354 74.032 426.578 74.864 422.482 74.864C418.514 74.864 414.962 73.968 411.826 72.176C408.754 70.384 406.322 67.856 404.53 64.592C402.802 61.264 401.938 57.456 401.938 53.168C401.938 51.248 402.13 49.296 402.514 47.312ZM445.81 47.504C446.066 46.288 446.194 44.976 446.194 43.568C446.194 39.28 444.914 35.92 442.354 33.488C439.858 30.992 436.722 29.744 432.946 29.744C430.13 29.744 427.378 30.448 424.69 31.856C422.002 33.2 419.666 35.216 417.682 37.904C415.698 40.528 414.386 43.664 413.746 47.312C413.49 48.528 413.362 49.84 413.362 51.248C413.362 55.6 414.61 59.056 417.106 61.616C419.666 64.112 422.834 65.36 426.61 65.36C429.426 65.36 432.178 64.656 434.866 63.248C437.554 61.84 439.89 59.792 441.874 57.104C443.858 54.352 445.17 51.152 445.81 47.504ZM523.737 21.104L514.425 74H503.481L504.537 67.76C502.425 69.936 499.865 71.664 496.857 72.944C493.913 74.16 490.873 74.768 487.737 74.768C482.169 74.768 477.721 73.264 474.393 70.256C471.065 67.248 469.401 62.992 469.401 57.488C469.401 56.016 469.561 54.256 469.881 52.208L475.353 21.104H486.201L481.017 50.576C480.761 52.368 480.633 53.648 480.633 54.416C480.633 57.936 481.593 60.624 483.513 62.48C485.497 64.336 488.217 65.264 491.673 65.264C495.705 65.264 499.129 64.08 501.945 61.712C504.761 59.28 506.617 55.792 507.513 51.248L512.792 21.104H523.737ZM552.384 2.96L539.808 74H528.864L541.44 2.96H552.384ZM569.537 59.312C569.409 60.208 569.345 60.784 569.345 61.04C569.345 62.384 569.761 63.376 570.593 64.016C571.425 64.592 572.801 64.88 574.721 64.88H581.441L579.809 74H571.169C566.945 74 563.713 73.168 561.473 71.504C559.233 69.776 558.113 67.056 558.113 63.344C558.113 61.936 558.241 60.592 558.497 59.312L563.681 30.032H557.441L558.977 21.104H565.313L567.617 7.952H578.657L576.353 21.104H589.121L587.585 30.032H574.721L569.537 59.312Z" fill="#1b2629"/>
</svg>
